%TF.GenerationSoftware,KiCad,Pcbnew,(6.0.8)*%
%TF.CreationDate,2026-06-17T17:34:06+01:00*%
%TF.ProjectId,maze_solver_pcb,6d617a65-5f73-46f6-9c76-65725f706362,rev?*%
%TF.SameCoordinates,Original*%
%TF.FileFunction,Soldermask,Bot*%
%TF.FilePolarity,Negative*%
%FSLAX46Y46*%
G04 Gerber Fmt 4.6, Leading zero omitted, Abs format (unit mm)*
G04 Created by KiCad (PCBNEW (6.0.8)) date 2026-06-17 17:34:06*
%MOMM*%
%LPD*%
G01*
G04 APERTURE LIST*
%ADD10R,1.700000X1.700000*%
%ADD11O,1.700000X1.700000*%
%ADD12C,5.600000*%
%ADD13C,1.778000*%
%ADD14R,3.000000X3.000000*%
%ADD15C,3.000000*%
%ADD16R,2.200000X2.200000*%
%ADD17O,2.200000X2.200000*%
%ADD18C,1.600000*%
G04 APERTURE END LIST*
D10*
%TO.C,US_FRONT1*%
X121920000Y-109220000D03*
D11*
X121920000Y-111760000D03*
X121920000Y-114300000D03*
X121920000Y-116840000D03*
%TD*%
D12*
%TO.C,REF\u002A\u002A*%
X137160000Y-132080000D03*
%TD*%
%TO.C,REF\u002A\u002A*%
X88900000Y-132080000D03*
%TD*%
%TO.C,REF\u002A\u002A*%
X137160000Y-71120000D03*
%TD*%
%TO.C,REF\u002A\u002A*%
X88900000Y-71120000D03*
%TD*%
D10*
%TO.C,US_RIGHT1*%
X121920000Y-121920000D03*
D11*
X121920000Y-124460000D03*
X121920000Y-127000000D03*
X121920000Y-129540000D03*
%TD*%
D10*
%TO.C,US_LEFT1*%
X109220000Y-121920000D03*
D11*
X109220000Y-124460000D03*
X109220000Y-127000000D03*
X109220000Y-129540000D03*
%TD*%
D10*
%TO.C,U4*%
X97800000Y-86360000D03*
D11*
X100340000Y-86360000D03*
X102880000Y-86360000D03*
X105420000Y-86360000D03*
%TD*%
D10*
%TO.C,U3*%
X111760000Y-73660000D03*
D11*
X114300000Y-73660000D03*
X116840000Y-73660000D03*
X119380000Y-73660000D03*
%TD*%
D10*
%TO.C,U2*%
X99060000Y-129540000D03*
D11*
X96520000Y-129540000D03*
X99060000Y-127000000D03*
X96520000Y-127000000D03*
X99060000Y-124460000D03*
X96520000Y-124460000D03*
X99060000Y-121920000D03*
X96520000Y-121920000D03*
X99060000Y-119380000D03*
X96520000Y-119380000D03*
X99060000Y-116840000D03*
X96520000Y-116840000D03*
X99060000Y-114300000D03*
X96520000Y-114300000D03*
X99060000Y-111760000D03*
X96520000Y-111760000D03*
%TD*%
D10*
%TO.C,U1*%
X114300000Y-83820000D03*
D11*
X116840000Y-83820000D03*
X114300000Y-86360000D03*
X116840000Y-86360000D03*
X114300000Y-88900000D03*
X116840000Y-88900000D03*
X114300000Y-91440000D03*
X116840000Y-91440000D03*
X114300000Y-93980000D03*
X116840000Y-93980000D03*
X114300000Y-96520000D03*
X116840000Y-96520000D03*
X114300000Y-99060000D03*
X116840000Y-99060000D03*
X114300000Y-101600000D03*
X116840000Y-101600000D03*
X114300000Y-104140000D03*
X116840000Y-104140000D03*
X114300000Y-106680000D03*
X116840000Y-106680000D03*
X114300000Y-109220000D03*
X116840000Y-109220000D03*
X114300000Y-111760000D03*
X116840000Y-111760000D03*
X114300000Y-114300000D03*
X116840000Y-114300000D03*
X114300000Y-116840000D03*
X116840000Y-116840000D03*
X114300000Y-119380000D03*
X116840000Y-119380000D03*
X114300000Y-121920000D03*
X116840000Y-121920000D03*
X114300000Y-124460000D03*
X116840000Y-124460000D03*
X114300000Y-127000000D03*
X116840000Y-127000000D03*
X114300000Y-129540000D03*
X116840000Y-129540000D03*
%TD*%
D13*
%TO.C,SW1*%
X99060000Y-73660000D03*
X104140000Y-73660000D03*
X104140000Y-81280000D03*
X101600000Y-81280000D03*
X99060000Y-81280000D03*
%TD*%
D14*
%TO.C,J1*%
X124460000Y-78740000D03*
D15*
X129540000Y-78740000D03*
%TD*%
D10*
%TO.C,ENC_RIGHT1*%
X121920000Y-101600000D03*
D11*
X121920000Y-99060000D03*
X121920000Y-96520000D03*
%TD*%
D10*
%TO.C,ENC_LEFT1*%
X129540000Y-101600000D03*
D11*
X129540000Y-99060000D03*
X129540000Y-96520000D03*
%TD*%
D16*
%TO.C,D1*%
X99060000Y-101600000D03*
D17*
X99060000Y-91440000D03*
%TD*%
D18*
%TO.C,C4*%
X106680000Y-99060000D03*
X106680000Y-94060000D03*
%TD*%
%TO.C,C3*%
X106680000Y-114300000D03*
X106680000Y-109300000D03*
%TD*%
%TO.C,C2*%
X127000000Y-132080000D03*
X127000000Y-127080000D03*
%TD*%
%TO.C,C1*%
X104140000Y-127000000D03*
X104140000Y-132000000D03*
%TD*%
M02*
