%TF.GenerationSoftware,KiCad,Pcbnew,(6.0.8)*%
%TF.CreationDate,2026-06-17T17:38:50+01:00*%
%TF.ProjectId,maze_solver_pcb,6d617a65-5f73-46f6-9c76-65725f706362,rev?*%
%TF.SameCoordinates,Original*%
%TF.FileFunction,Copper,L2,Bot*%
%TF.FilePolarity,Positive*%
%FSLAX46Y46*%
G04 Gerber Fmt 4.6, Leading zero omitted, Abs format (unit mm)*
G04 Created by KiCad (PCBNEW (6.0.8)) date 2026-06-17 17:38:50*
%MOMM*%
%LPD*%
G01*
G04 APERTURE LIST*
%TA.AperFunction,ComponentPad*%
%ADD10R,1.700000X1.700000*%
%TD*%
%TA.AperFunction,ComponentPad*%
%ADD11O,1.700000X1.700000*%
%TD*%
%TA.AperFunction,ComponentPad*%
%ADD12C,5.600000*%
%TD*%
%TA.AperFunction,ComponentPad*%
%ADD13C,1.778000*%
%TD*%
%TA.AperFunction,ComponentPad*%
%ADD14R,3.000000X3.000000*%
%TD*%
%TA.AperFunction,ComponentPad*%
%ADD15C,3.000000*%
%TD*%
%TA.AperFunction,ComponentPad*%
%ADD16R,2.200000X2.200000*%
%TD*%
%TA.AperFunction,ComponentPad*%
%ADD17O,2.200000X2.200000*%
%TD*%
%TA.AperFunction,ComponentPad*%
%ADD18C,1.600000*%
%TD*%
%TA.AperFunction,Conductor*%
%ADD19C,0.250000*%
%TD*%
G04 APERTURE END LIST*
D10*
%TO.P,US_FRONT1,1,Pin_1*%
%TO.N,Net-(C3-Pad2)*%
X121920000Y-109220000D03*
D11*
%TO.P,US_FRONT1,2,Pin_2*%
%TO.N,GND*%
X121920000Y-111760000D03*
%TO.P,US_FRONT1,3,Pin_3*%
%TO.N,Net-(U1-Pad29)*%
X121920000Y-114300000D03*
%TO.P,US_FRONT1,4,Pin_4*%
%TO.N,Net-(U1-Pad30)*%
X121920000Y-116840000D03*
%TD*%
D12*
%TO.P,REF\u002A\u002A,1*%
%TO.N,N/C*%
X137160000Y-132080000D03*
%TD*%
%TO.P,REF\u002A\u002A,1*%
%TO.N,N/C*%
X88900000Y-132080000D03*
%TD*%
%TO.P,REF\u002A\u002A,1*%
%TO.N,N/C*%
X137160000Y-71120000D03*
%TD*%
%TO.P,REF\u002A\u002A,1*%
%TO.N,N/C*%
X88900000Y-71120000D03*
%TD*%
D10*
%TO.P,US_RIGHT1,1,Pin_1*%
%TO.N,Net-(C3-Pad2)*%
X121920000Y-121920000D03*
D11*
%TO.P,US_RIGHT1,2,Pin_2*%
%TO.N,GND*%
X121920000Y-124460000D03*
%TO.P,US_RIGHT1,3,Pin_3*%
%TO.N,Net-(U1-Pad36)*%
X121920000Y-127000000D03*
%TO.P,US_RIGHT1,4,Pin_4*%
%TO.N,Net-(U1-Pad37)*%
X121920000Y-129540000D03*
%TD*%
D10*
%TO.P,US_LEFT1,1,Pin_1*%
%TO.N,Net-(C3-Pad2)*%
X109220000Y-121920000D03*
D11*
%TO.P,US_LEFT1,2,Pin_2*%
%TO.N,GND*%
X109220000Y-124460000D03*
%TO.P,US_LEFT1,3,Pin_3*%
%TO.N,/UART_RX*%
X109220000Y-127000000D03*
%TO.P,US_LEFT1,4,Pin_4*%
%TO.N,Net-(U1-Pad33)*%
X109220000Y-129540000D03*
%TD*%
D10*
%TO.P,U4,1,OUT+*%
%TO.N,Net-(D1-Pad2)*%
X97800000Y-86360000D03*
D11*
%TO.P,U4,2,OUT-*%
%TO.N,GND*%
X100340000Y-86360000D03*
%TO.P,U4,3,IN+*%
%TO.N,/VBAT_SW*%
X102880000Y-86360000D03*
%TO.P,U4,4,IN-*%
%TO.N,GND*%
X105420000Y-86360000D03*
%TD*%
D10*
%TO.P,U3,1,SENSE_A*%
%TO.N,unconnected-(U3-Pad1)*%
X111760000Y-73660000D03*
D11*
%TO.P,U3,2,OUT1*%
%TO.N,unconnected-(U3-Pad2)*%
X114300000Y-73660000D03*
%TO.P,U3,3,OUT2*%
%TO.N,unconnected-(U3-Pad3)*%
X116840000Y-73660000D03*
%TO.P,U3,4,Vs*%
%TO.N,/VBAT_SW*%
X119380000Y-73660000D03*
%TD*%
D10*
%TO.P,U2,1,GND*%
%TO.N,GND*%
X99060000Y-129540000D03*
D11*
%TO.P,U2,2,VDD*%
%TO.N,/VCC_3V3*%
X96520000Y-129540000D03*
%TO.P,U2,3,EN*%
%TO.N,unconnected-(U2-Pad3)*%
X99060000Y-127000000D03*
%TO.P,U2,4,SENSOR_VP*%
%TO.N,unconnected-(U2-Pad4)*%
X96520000Y-127000000D03*
%TO.P,U2,5,SENSOR_VN*%
%TO.N,unconnected-(U2-Pad5)*%
X99060000Y-124460000D03*
%TO.P,U2,6,IO34*%
%TO.N,unconnected-(U2-Pad6)*%
X96520000Y-124460000D03*
%TO.P,U2,7,IO35*%
%TO.N,unconnected-(U2-Pad7)*%
X99060000Y-121920000D03*
%TO.P,U2,8,IO32*%
%TO.N,unconnected-(U2-Pad8)*%
X96520000Y-121920000D03*
%TO.P,U2,9,IO33*%
%TO.N,unconnected-(U2-Pad9)*%
X99060000Y-119380000D03*
%TO.P,U2,10,IO25*%
%TO.N,unconnected-(U2-Pad10)*%
X96520000Y-119380000D03*
%TO.P,U2,11,IO26*%
%TO.N,unconnected-(U2-Pad11)*%
X99060000Y-116840000D03*
%TO.P,U2,12,IO27*%
%TO.N,unconnected-(U2-Pad12)*%
X96520000Y-116840000D03*
%TO.P,U2,13,IO14*%
%TO.N,unconnected-(U2-Pad13)*%
X99060000Y-114300000D03*
%TO.P,U2,14,IO12*%
%TO.N,unconnected-(U2-Pad14)*%
X96520000Y-114300000D03*
%TO.P,U2,15,GND*%
%TO.N,GND*%
X99060000Y-111760000D03*
%TO.P,U2,16,IO13*%
%TO.N,unconnected-(U2-Pad16)*%
X96520000Y-111760000D03*
%TD*%
D10*
%TO.P,U1,1,GND*%
%TO.N,GND*%
X114300000Y-83820000D03*
D11*
%TO.P,U1,2,VDD*%
%TO.N,/VCC_3V3*%
X116840000Y-83820000D03*
%TO.P,U1,3,EN*%
%TO.N,unconnected-(U1-Pad3)*%
X114300000Y-86360000D03*
%TO.P,U1,4,SENSOR_VP*%
%TO.N,unconnected-(U1-Pad4)*%
X116840000Y-86360000D03*
%TO.P,U1,5,SENSOR_VN*%
%TO.N,unconnected-(U1-Pad5)*%
X114300000Y-88900000D03*
%TO.P,U1,6,IO34*%
%TO.N,Net-(ENC_LEFT1-Pad3)*%
X116840000Y-88900000D03*
%TO.P,U1,7,IO35*%
%TO.N,Net-(ENC_RIGHT1-Pad3)*%
X114300000Y-91440000D03*
%TO.P,U1,8,IO32*%
%TO.N,Net-(U1-Pad8)*%
X116840000Y-91440000D03*
%TO.P,U1,9,IO33*%
%TO.N,Net-(U1-Pad9)*%
X114300000Y-93980000D03*
%TO.P,U1,10,IO25*%
%TO.N,Net-(U1-Pad10)*%
X116840000Y-93980000D03*
%TO.P,U1,11,IO26*%
%TO.N,Net-(U1-Pad11)*%
X114300000Y-96520000D03*
%TO.P,U1,12,IO27*%
%TO.N,Net-(U1-Pad12)*%
X116840000Y-96520000D03*
%TO.P,U1,13,IO14*%
%TO.N,Net-(U1-Pad13)*%
X114300000Y-99060000D03*
%TO.P,U1,14,IO12*%
%TO.N,unconnected-(U1-Pad14)*%
X116840000Y-99060000D03*
%TO.P,U1,15,GND*%
%TO.N,GND*%
X114300000Y-101600000D03*
%TO.P,U1,16,IO13*%
%TO.N,unconnected-(U1-Pad16)*%
X116840000Y-101600000D03*
%TO.P,U1,17,SHD/SD2*%
%TO.N,unconnected-(U1-Pad17)*%
X114300000Y-104140000D03*
%TO.P,U1,18,SWP/SD3*%
%TO.N,unconnected-(U1-Pad18)*%
X116840000Y-104140000D03*
%TO.P,U1,19,SCS/CMD*%
%TO.N,unconnected-(U1-Pad19)*%
X114300000Y-106680000D03*
%TO.P,U1,20,SCK/CLK*%
%TO.N,unconnected-(U1-Pad20)*%
X116840000Y-106680000D03*
%TO.P,U1,21,SDO/SD0*%
%TO.N,unconnected-(U1-Pad21)*%
X114300000Y-109220000D03*
%TO.P,U1,22,SDI/SD1*%
%TO.N,unconnected-(U1-Pad22)*%
X116840000Y-109220000D03*
%TO.P,U1,23,IO15*%
%TO.N,unconnected-(U1-Pad23)*%
X114300000Y-111760000D03*
%TO.P,U1,24,IO2*%
%TO.N,unconnected-(U1-Pad24)*%
X116840000Y-111760000D03*
%TO.P,U1,25,IO0*%
%TO.N,unconnected-(U1-Pad25)*%
X114300000Y-114300000D03*
%TO.P,U1,26,IO4*%
%TO.N,unconnected-(U1-Pad26)*%
X116840000Y-114300000D03*
%TO.P,U1,27,IO16*%
%TO.N,/UART_TX*%
X114300000Y-116840000D03*
%TO.P,U1,28,IO17*%
%TO.N,Net-(U1-Pad28)*%
X116840000Y-116840000D03*
%TO.P,U1,29,IO5*%
%TO.N,Net-(U1-Pad29)*%
X114300000Y-119380000D03*
%TO.P,U1,30,IO18*%
%TO.N,Net-(U1-Pad30)*%
X116840000Y-119380000D03*
%TO.P,U1,31,IO19*%
%TO.N,/UART_RX*%
X114300000Y-121920000D03*
%TO.P,U1,32,NC*%
%TO.N,unconnected-(U1-Pad32)*%
X116840000Y-121920000D03*
%TO.P,U1,33,IO21*%
%TO.N,Net-(U1-Pad33)*%
X114300000Y-124460000D03*
%TO.P,U1,34,RXD0/IO3*%
%TO.N,unconnected-(U1-Pad34)*%
X116840000Y-124460000D03*
%TO.P,U1,35,TXD0/IO1*%
%TO.N,unconnected-(U1-Pad35)*%
X114300000Y-127000000D03*
%TO.P,U1,36,IO22*%
%TO.N,Net-(U1-Pad36)*%
X116840000Y-127000000D03*
%TO.P,U1,37,IO23*%
%TO.N,Net-(U1-Pad37)*%
X114300000Y-129540000D03*
%TO.P,U1,38,GND*%
%TO.N,GND*%
X116840000Y-129540000D03*
%TD*%
D13*
%TO.P,SW1,1,A*%
%TO.N,/VBAT_SW*%
X99060000Y-73660000D03*
%TO.P,SW1,2,B*%
%TO.N,Net-(J1-Pad2)*%
X104140000Y-73660000D03*
%TO.P,SW1,3*%
%TO.N,N/C*%
X104140000Y-81280000D03*
%TO.P,SW1,4*%
X101600000Y-81280000D03*
%TO.P,SW1,5*%
X99060000Y-81280000D03*
%TD*%
D14*
%TO.P,J1,1,Pin_1*%
%TO.N,GND*%
X124460000Y-78740000D03*
D15*
%TO.P,J1,2,Pin_2*%
%TO.N,Net-(J1-Pad2)*%
X129540000Y-78740000D03*
%TD*%
D10*
%TO.P,ENC_RIGHT1,1,Pin_1*%
%TO.N,Net-(C3-Pad2)*%
X121920000Y-101600000D03*
D11*
%TO.P,ENC_RIGHT1,2,Pin_2*%
%TO.N,GND*%
X121920000Y-99060000D03*
%TO.P,ENC_RIGHT1,3,Pin_3*%
%TO.N,Net-(ENC_RIGHT1-Pad3)*%
X121920000Y-96520000D03*
%TD*%
D10*
%TO.P,ENC_LEFT1,1,Pin_1*%
%TO.N,Net-(C3-Pad2)*%
X129540000Y-101600000D03*
D11*
%TO.P,ENC_LEFT1,2,Pin_2*%
%TO.N,GND*%
X129540000Y-99060000D03*
%TO.P,ENC_LEFT1,3,Pin_3*%
%TO.N,Net-(ENC_LEFT1-Pad3)*%
X129540000Y-96520000D03*
%TD*%
D16*
%TO.P,D1,1,K*%
%TO.N,Net-(C3-Pad2)*%
X99060000Y-101600000D03*
D17*
%TO.P,D1,2,A*%
%TO.N,Net-(D1-Pad2)*%
X99060000Y-91440000D03*
%TD*%
D18*
%TO.P,C4,1*%
%TO.N,Net-(C3-Pad2)*%
X106680000Y-99060000D03*
%TO.P,C4,2*%
%TO.N,GND*%
X106680000Y-94060000D03*
%TD*%
%TO.P,C3,1*%
%TO.N,GND*%
X106680000Y-114300000D03*
%TO.P,C3,2*%
%TO.N,Net-(C3-Pad2)*%
X106680000Y-109300000D03*
%TD*%
%TO.P,C2,1*%
%TO.N,/VCC_3V3*%
X127000000Y-132080000D03*
%TO.P,C2,2*%
%TO.N,GND*%
X127000000Y-127080000D03*
%TD*%
%TO.P,C1,1*%
%TO.N,GND*%
X104140000Y-127000000D03*
%TO.P,C1,2*%
%TO.N,/VCC_3V3*%
X104140000Y-132000000D03*
%TD*%
D19*
%TO.N,/VBAT_SW*%
X119460000Y-73580000D02*
X119380000Y-73660000D01*
%TD*%
M02*
